<svg width="2063" height="1609" viewBox="0 0 2063 1609" fill="none" xmlns="http://www.w3.org/2000/svg">
<g clip-path="url(#clip0_1_2)">
<path d="M2049.22 1290.71C2049.22 1466.07 1906.43 1608.86 1731.07 1608.86H0V348.768C0 173.407 142.794 30.6129 318.155 30.6129H2049.22V1290.71Z" fill="white"/>
<path d="M1485.56 967.543H1617.08C1620.84 967.543 1629.61 966.291 1633.36 966.291C1658.42 961.28 1679.71 938.734 1679.71 907.419C1679.71 877.357 1658.42 854.811 1633.36 848.548C1629.61 847.295 1622.09 847.295 1617.08 847.295H1485.56V967.543Z" fill="url(#paint0_linear_1_2)"/>
<path d="M1602.05 137.082C1476.79 137.082 1374.08 238.541 1374.08 365.052V601.79H1695.99C1703.51 601.79 1712.28 601.79 1718.54 603.042C1791.19 606.8 1845.05 644.377 1845.05 709.512C1845.05 760.867 1808.73 804.708 1741.09 813.476V815.981C1814.99 820.991 1871.36 862.326 1871.36 926.208C1871.36 995.1 1808.73 1040.19 1726.06 1040.19H1372.83V1503.65H1707.27C1832.53 1503.65 1935.24 1402.19 1935.24 1275.68V137.082H1602.05Z" fill="url(#paint1_linear_1_2)"/>
<path d="M1663.43 724.542C1663.43 694.481 1642.13 674.439 1617.08 670.682C1614.58 670.682 1608.31 669.429 1604.56 669.429H1485.56V779.656H1604.56C1608.31 779.656 1615.83 779.656 1617.08 778.403C1642.13 774.646 1663.43 754.604 1663.43 724.542Z" fill="url(#paint2_linear_1_2)"/>
<path d="M341.954 137.082C216.696 137.082 113.985 238.541 113.985 365.052V927.461C177.866 958.775 244.253 978.816 310.64 978.816C389.553 978.816 432.14 931.218 432.14 866.084V600.537H627.543V864.832C627.543 967.543 563.661 1051.47 346.965 1051.47C215.444 1051.47 112.732 1022.66 112.732 1022.66V1502.39H447.171C572.429 1502.39 675.141 1400.94 675.141 1274.43V137.082H341.954Z" fill="url(#paint3_linear_1_2)"/>
<path d="M972.002 137.082C846.744 137.082 744.033 238.541 744.033 365.052V663.166C801.652 614.315 901.858 583.001 1063.44 590.516C1149.87 594.274 1242.56 618.073 1242.56 618.073V714.522C1196.21 690.723 1141.1 669.429 1069.7 664.419C946.951 655.651 873.049 715.775 873.049 820.991C873.049 927.461 946.951 987.585 1069.7 977.564C1141.1 972.554 1196.21 950.007 1242.56 927.461V1023.91C1242.56 1023.91 1151.12 1047.71 1063.44 1051.47C901.858 1058.98 801.652 1027.67 744.033 978.816V1504.9H1078.47C1203.73 1504.9 1306.44 1403.44 1306.44 1276.93V137.082H972.002Z" fill="url(#paint4_linear_1_2)"/>
</g>
<defs>
<linearGradient id="paint0_linear_1_2" x1="1373.87" y1="907.57" x2="1936.75" y2="907.57" gradientUnits="userSpaceOnUse">
<stop stop-color="#007940"/>
<stop offset="0.229" stop-color="#00873F"/>
<stop offset="0.743" stop-color="#40A737"/>
<stop offset="1" stop-color="#5CB531"/>
</linearGradient>
<linearGradient id="paint1_linear_1_2" x1="1373.86" y1="819.814" x2="1936.78" y2="819.814" gradientUnits="userSpaceOnUse">
<stop stop-color="#007940"/>
<stop offset="0.229" stop-color="#00873F"/>
<stop offset="0.743" stop-color="#40A737"/>
<stop offset="1" stop-color="#5CB531"/>
</linearGradient>
<linearGradient id="paint2_linear_1_2" x1="1373.86" y1="724.38" x2="1936.75" y2="724.38" gradientUnits="userSpaceOnUse">
<stop stop-color="#007940"/>
<stop offset="0.229" stop-color="#00873F"/>
<stop offset="0.743" stop-color="#40A737"/>
<stop offset="1" stop-color="#5CB531"/>
</linearGradient>
<linearGradient id="paint3_linear_1_2" x1="113.722" y1="819.814" x2="685.312" y2="819.814" gradientUnits="userSpaceOnUse">
<stop stop-color="#1F286F"/>
<stop offset="0.475" stop-color="#004E94"/>
<stop offset="0.826" stop-color="#0066B1"/>
<stop offset="1" stop-color="#006FBC"/>
</linearGradient>
<linearGradient id="paint4_linear_1_2" x1="740.789" y1="819.814" x2="1295.94" y2="819.814" gradientUnits="userSpaceOnUse">
<stop stop-color="#6C2C2F"/>
<stop offset="0.173" stop-color="#882730"/>
<stop offset="0.573" stop-color="#BE1833"/>
<stop offset="0.859" stop-color="#DC0436"/>
<stop offset="1" stop-color="#E60039"/>
</linearGradient>
<clipPath id="clip0_1_2">
<rect width="2063" height="1609" fill="white"/>
</clipPath>
</defs>
</svg>
